# xmcd
#
# Track frame offsets: 
#        150
#        13095
#        23659
#        38536
#        50776
#        62309
#        75472
#        88460
#        100494
#        113360
#        125274
#        136905
#        151617
#        165376
#        178268
#        191331
#        202314
#        214125
#        225507
#        239582
#        254028
#        268157
#        280975
#        292600
#
# Disc length: 4095 seconds
#
# Revision: 0
# Processed by: cddbd v1.5.2PL0 Copyright (c) Steve Scherf et al.
# Submitted via: ExactAudioCopy v1.3
#
DISCID=4c0ffd18
DTITLE=Bill Boyd and His Cowboy Ramblers - Bill Boyd_The Best Of The Cow
DTITLE=boy Ramblers
DYEAR=2011
DGENRE=Western Swing
TTITLE0=Under The Double Eagle
TTITLE1=I've Got Those Oklahoma Blues
TTITLE2=Wah Hoo
TTITLE3=River Blues
TTITLE4=Boyd's Tin Roof Blues
TTITLE5=Rambler's Rag
TTITLE6=The Windswept Desert
TTITLE7=I Can't Tame Wild Women
TTITLE8=Cross-Eyed Gal On The Hill
TTITLE9=Frosty Mornin'
TTITLE10=Beale Street Blues
TTITLE11=Eyes Of Texas
TTITLE12=The Strawberry Roan
TTITLE13=Way Out There
TTITLE14=Barn Dance Rag
TTITLE15=Lone Star
TTITLE16=Saturday Night Rag
TTITLE17=Must I Hesitate?
TTITLE18=Going Back To My Texas Home
TTITLE19=You Shall Be Free, Monah
TTITLE20=I'm Gonna Hop Off That Train
TTITLE21=Mama Don't Like No Music
TTITLE22=Goofus
TTITLE23=Dragging It Around
EXTD=
EXTT0=
EXTT1=
EXTT2=
EXTT3=
EXTT4=
EXTT5=
EXTT6=
EXTT7=
EXTT8=
EXTT9=
EXTT10=
EXTT11=
EXTT12=
EXTT13=
EXTT14=
EXTT15=
EXTT16=
EXTT17=
EXTT18=
EXTT19=
EXTT20=
EXTT21=
EXTT22=
EXTT23=
PLAYORDER=
